# xmcd
#
# Track frame offsets:
#	150
#	16805
#	44637
#	66850
#	84142
#	101552
#	121660
#	138340
#	150792
#	172672
#	192332
#	209012
#	229935
#	243990
#
# Disc length: 3510
#
# Revision: 1
# Processed by: cddbd v1.5.1PL0 Copyright (c) Steve Scherf et al.
# Submitted via: CD-Datenbank 4.*
# Normalized: r0:DSETVAR1,TDELIM( - )
#
DISCID=aa0db40e
DTITLE=Various Artist - The Love Album
DYEAR=2000
DGENRE=Blues
TTITLE0=Take That - How Deep Is Your Love
TTITLE1=Lisa Stansfield - Live Together
TTITLE2=René Froger - You're A Lady
TTITLE3=Londonbeat - I've Been Thinking About You
TTITLE4=T. Sherman and J. Loko - Too Big For Words
TTITLE5=Shakatak - Out Of My Sight
TTITLE6=Anita Meyer - They Don't Play Our Lovesong Anymore
TTITLE7=Paolo Conte - Via Con Me
TTITLE8=Billy Ocean - There'll Be Sad Songs
TTITLE9=Art Garfunkel - Bright Eyes
TTITLE10=The Nylons - Ain't No Sunshine
TTITLE11=Gary Barlow - Forever Love
TTITLE12=Celine Delon - En Amour
TTITLE13=Kenny Rogers - She Believes In Me
EXTD=
EXTT0=
EXTT1=
EXTT2=
EXTT3=
EXTT4=
EXTT5=
EXTT6=
EXTT7=
EXTT8=
EXTT9=
EXTT10=
EXTT11=
EXTT12=
EXTT13=
PLAYORDER=
